<?xml version="1.0" encoding="UTF-8"?>
<!-- Generated by Pixelmator Pro 3.8 -->
<svg width="3333" height="3333" viewBox="0 0 3333 3333" xmlns="http://www.w3.org/2000/svg">
    <g id="Group">
        <path id="Path" fill="#ff9606" stroke="none" d="M 1538.550903 1764.68042 L 1415.921021 1642.050537 L 1231.660889 1731.126465 L 1120.879395 2044.387695 L 1274.042236 1866.076904 C 1266.188232 1843.162842 1271.15979 1816.819458 1289.442139 1798.536987 C 1315.018555 1772.960571 1356.487305 1772.960571 1382.063843 1798.536987 C 1407.640869 1824.114136 1407.640381 1865.582275 1382.063843 1891.158691 C 1363.780884 1909.44165 1337.438599 1914.41333 1314.523926 1906.558594 L 1136.213867 2059.722168 L 1449.474976 1948.940552 L 1538.550903 1764.68042 Z"/>
        <path id="path1" fill="#ff9606" stroke="none" d="M 1578.380249 1763.214355 L 1417.387085 1602.221191 L 1630.466187 1284.970215 L 1895.631104 1550.135254 L 1578.380249 1763.214355 Z"/>
        <path id="path2" fill="#ff9606" stroke="none" d="M 2809.503662 532.09082 L 2648.510498 371.0979 L 1649.406616 1266.030029 L 1914.571533 1531.194824 L 2809.503662 532.09082 Z"/>
        <path id="path3" fill="#ff9606" stroke="none" d="M 2776.357666 404.243164 C 2731.901123 359.786621 2683.140869 336.467041 2667.450684 352.157227 L 2828.443604 513.150391 C 2844.134033 497.460205 2820.814941 448.700684 2776.357666 404.243164 Z"/>
    </g>
</svg>
