<?xml version="1.0" encoding="UTF-8"?>
<!--Generator: Apple Native CoreSVG 341-->
<!DOCTYPE svg
PUBLIC "-//W3C//DTD SVG 1.1//EN"
       "http://www.w3.org/Graphics/SVG/1.1/DTD/svg11.dtd">
<svg version="1.1" xmlns="http://www.w3.org/2000/svg" xmlns:xlink="http://www.w3.org/1999/xlink" viewBox="0 0 3300 2200">
 <!--glyph: "", point size: 100.0, font version: "21.1d1e1", template writer version: "138.0.0"-->
 <style>.defaults {-sfsymbols-variable-value-mode:color;-sfsymbols-draw-reverses-motion-groups:true}

.monochrome-0 {-sfsymbols-motion-group:0;-sfsymbols-layer-tags:-13fe4d419f7af600}

.multicolor-0:tintColor {-sfsymbols-motion-group:0;-sfsymbols-layer-tags:-13fe4d419f7af600}

.hierarchical-0:primary {-sfsymbols-motion-group:0;-sfsymbols-layer-tags:-13fe4d419f7af600}

.SFSymbolsPreviewWireframe {fill:none;opacity:1.0;stroke:black;stroke-width:0.5}
</style>
 <g id="Notes">
  <rect height="2200" id="artboard" style="fill:white;opacity:1" width="3300" x="0" y="0"/>
  <line style="fill:none;stroke:black;opacity:1;stroke-width:0.5;" x1="263" x2="3036" y1="292" y2="292"/>
  <text style="stroke:none;fill:black;font-family:sans-serif;font-size:13;font-weight:bold;" transform="matrix(1 0 0 1 263 322)">Weight/Scale Variations</text>
  <text style="stroke:none;fill:black;font-family:sans-serif;font-size:13;text-anchor:middle;" transform="matrix(1 0 0 1 559.711 322)">Ultralight</text>
  <text style="stroke:none;fill:black;font-family:sans-serif;font-size:13;text-anchor:middle;" transform="matrix(1 0 0 1 856.422 322)">Thin</text>
  <text style="stroke:none;fill:black;font-family:sans-serif;font-size:13;text-anchor:middle;" transform="matrix(1 0 0 1 1153.13 322)">Light</text>
  <text style="stroke:none;fill:black;font-family:sans-serif;font-size:13;text-anchor:middle;" transform="matrix(1 0 0 1 1449.84 322)">Regular</text>
  <text style="stroke:none;fill:black;font-family:sans-serif;font-size:13;text-anchor:middle;" transform="matrix(1 0 0 1 1746.56 322)">Medium</text>
  <text style="stroke:none;fill:black;font-family:sans-serif;font-size:13;text-anchor:middle;" transform="matrix(1 0 0 1 2043.27 322)">Semibold</text>
  <text style="stroke:none;fill:black;font-family:sans-serif;font-size:13;text-anchor:middle;" transform="matrix(1 0 0 1 2339.98 322)">Bold</text>
  <text style="stroke:none;fill:black;font-family:sans-serif;font-size:13;text-anchor:middle;" transform="matrix(1 0 0 1 2636.69 322)">Heavy</text>
  <text style="stroke:none;fill:black;font-family:sans-serif;font-size:13;text-anchor:middle;" transform="matrix(1 0 0 1 2933.4 322)">Black</text>
  <line style="fill:none;stroke:black;opacity:1;stroke-width:0.5;" x1="263" x2="3036" y1="1903" y2="1903"/>
  <g transform="matrix(0.2 0 0 0.2 263 1933)">
   <path d="m46.2402 4.15039c21.7773 0 39.4531-17.627 39.4531-39.4043s-17.6758-39.4043-39.4531-39.4043c-21.7285 0-39.4043 17.627-39.4043 39.4043s17.6758 39.4043 39.4043 39.4043Zm0-7.42188c-17.6758 0-31.9336-14.3066-31.9336-31.9824s14.2578-31.9824 31.9336-31.9824 31.9824 14.3066 31.9824 31.9824-14.3066 31.9824-31.9824 31.9824Zm3.61328-17.7734v-28.4668c0-2.24609-1.46484-3.75977-3.71094-3.75977-2.14844 0-3.61328 1.51367-3.61328 3.75977v28.4668c0 2.19727 1.46484 3.71094 3.61328 3.71094 2.24609 0 3.71094-1.51367 3.71094-3.71094Zm-17.8223-10.5957h28.418c2.19727 0 3.71094-1.46484 3.71094-3.61328 0-2.19727-1.51367-3.71094-3.71094-3.71094h-28.418c-2.24609 0-3.75977 1.51367-3.75977 3.71094 0 2.14844 1.51367 3.61328 3.75977 3.61328Z"/>
  </g>
  <g transform="matrix(0.2 0 0 0.2 281.506 1933)">
   <path d="m58.5449 14.5508c27.4902 0 49.8047-22.3145 49.8047-49.8047s-22.3145-49.8047-49.8047-49.8047-49.8047 22.3145-49.8047 49.8047 22.3145 49.8047 49.8047 49.8047Zm0-8.30078c-22.9492 0-41.5039-18.5547-41.5039-41.5039s18.5547-41.5039 41.5039-41.5039 41.5039 18.5547 41.5039 41.5039-18.5547 41.5039-41.5039 41.5039Zm4.05273-23.0957v-36.9141c0-2.49023-1.70898-4.19922-4.15039-4.19922-2.39258 0-4.05273 1.70898-4.05273 4.19922v36.9141c0 2.44141 1.66016 4.15039 4.05273 4.15039 2.44141 0 4.15039-1.66016 4.15039-4.15039Zm-22.5586-14.4043h36.9629c2.44141 0 4.15039-1.61133 4.15039-4.00391 0-2.44141-1.70898-4.15039-4.15039-4.15039h-36.9629c-2.49023 0-4.15039 1.70898-4.15039 4.15039 0 2.39258 1.66016 4.00391 4.15039 4.00391Z"/>
  </g>
  <g transform="matrix(0.2 0 0 0.2 304.924 1933)">
   <path d="m74.8535 28.3203c35.1074 0 63.623-28.4668 63.623-63.5742s-28.5156-63.623-63.623-63.623-63.5742 28.5156-63.5742 63.623 28.4668 63.5742 63.5742 63.5742Zm0-9.08203c-30.127 0-54.4922-24.3652-54.4922-54.4922s24.3652-54.4922 54.4922-54.4922 54.4922 24.3652 54.4922 54.4922-24.3652 54.4922-54.4922 54.4922Zm4.44336-30.3223v-48.4863c0-2.73438-1.85547-4.63867-4.54102-4.63867-2.58789 0-4.44336 1.9043-4.44336 4.63867v48.4863c0 2.68555 1.85547 4.58984 4.44336 4.58984 2.68555 0 4.54102-1.85547 4.54102-4.58984Zm-28.7109-19.7754h48.4863c2.68555 0 4.58984-1.80664 4.58984-4.39453 0-2.73438-1.85547-4.58984-4.58984-4.58984h-48.4863c-2.73438 0-4.58984 1.85547-4.58984 4.58984 0 2.58789 1.85547 4.39453 4.58984 4.39453Z"/>
  </g>
  <text style="stroke:none;fill:black;font-family:sans-serif;font-size:13;font-weight:bold;" transform="matrix(1 0 0 1 263 1953)">Design Variations</text>
  <text style="stroke:none;fill:black;font-family:sans-serif;font-size:13;" transform="matrix(1 0 0 1 263 1971)">Symbols are supported in up to nine weights and three scales.</text>
  <text style="stroke:none;fill:black;font-family:sans-serif;font-size:13;" transform="matrix(1 0 0 1 263 1989)">For optimal layout with text and other symbols, vertically align</text>
  <text style="stroke:none;fill:black;font-family:sans-serif;font-size:13;" transform="matrix(1 0 0 1 263 2007)">symbols with the adjacent text.</text>
  <line style="fill:none;stroke:#00AEEF;stroke-width:0.5;opacity:1.0;" x1="776" x2="776" y1="1919" y2="1933"/>
  <g transform="matrix(0.2 0 0 0.2 776 1933)">
   <path d="m16.5527 0.78125c2.58789 0 3.85742-0.976562 4.78516-3.71094l20.5566-57.5195h0.244141l20.6055 57.5195c0.927734 2.73438 2.19727 3.71094 4.73633 3.71094 2.58789 0 4.24805-1.5625 4.24805-4.00391 0-0.830078-0.146484-1.61133-0.537109-2.63672l-22.9004-60.9863c-1.12305-2.97852-3.125-4.49219-6.25-4.49219-3.02734 0-5.07812 1.46484-6.15234 4.44336l-22.9004 61.084c-0.390625 1.02539-0.537109 1.80664-0.537109 2.63672 0 2.44141 1.5625 3.95508 4.10156 3.95508Zm10.2051-20.9473h30.6641c2.00195 0 3.66211-1.66016 3.66211-3.66211 0-2.05078-1.66016-3.66211-3.66211-3.66211h-30.6641c-2.00195 0-3.66211 1.61133-3.66211 3.66211 0 2.00195 1.66016 3.66211 3.66211 3.66211Z"/>
  </g>
  <line style="fill:none;stroke:#00AEEF;stroke-width:0.5;opacity:1.0;" x1="792.836" x2="792.836" y1="1919" y2="1933"/>
  <text style="stroke:none;fill:black;font-family:sans-serif;font-size:13;font-weight:bold;" transform="matrix(1 0 0 1 776 1953)">Margins</text>
  <text style="stroke:none;fill:black;font-family:sans-serif;font-size:13;" transform="matrix(1 0 0 1 776 1971)">Leading and trailing margins on the left and right side of each symbol</text>
  <text style="stroke:none;fill:black;font-family:sans-serif;font-size:13;" transform="matrix(1 0 0 1 776 1989)">can be adjusted by modifying the x-location of the margin guidelines.</text>
  <text style="stroke:none;fill:black;font-family:sans-serif;font-size:13;" transform="matrix(1 0 0 1 776 2007)">Modifications are automatically applied proportionally to all</text>
  <text style="stroke:none;fill:black;font-family:sans-serif;font-size:13;" transform="matrix(1 0 0 1 776 2025)">scales and weights.</text>
  <g transform="matrix(0.2 0 0 0.2 1289 1933)">
   <path d="m14.209 13.1348 7.86133 7.86133c4.29688 4.39453 9.32617 4.10156 13.8672-1.02539l60.6934-68.2129-4.88281-4.88281-60.2539 67.6758c-1.80664 1.95312-3.4668 2.44141-5.81055 0.0976562l-5.17578-5.12695c-2.29492-2.29492-1.80664-3.95508 0.195312-5.81055l67.4805-62.1582-4.88281-4.83398-68.0664 62.5977c-4.98047 4.58984-5.32227 9.47266-1.02539 13.8184Zm44.873-97.4609c-2.05078 2.00195-2.24609 4.88281-1.07422 6.78711 1.12305 1.80664 3.4668 3.02734 6.5918 2.24609 5.85938-1.66016 12.5977-2.39258 18.8965 0.927734l-2.68555 7.12891c-1.61133 4.00391-0.732422 6.88477 1.70898 9.42383l10.2539 10.3027c2.34375 2.39258 4.54102 2.44141 7.08008 1.95312l4.44336-0.732422 2.58789 2.53906-0.195312 2.24609c-0.0976562 2.29492 0.537109 4.29688 2.7832 6.49414l3.36914 3.32031c2.29492 2.29492 5.51758 2.49023 7.8125 0.195312l12.9883-13.0371c2.29492-2.34375 2.14844-5.37109-0.195312-7.66602l-3.41797-3.41797c-2.19727-2.19727-4.05273-3.02734-6.34766-2.88086l-2.34375 0.244141-2.44141-2.44141 1.02539-4.6875c0.634766-2.73438-0.244141-4.98047-2.88086-7.61719l-11.2793-11.1816c-12.9395-12.8418-35.5957-11.0352-46.6797-0.146484Zm7.08008 2.05078c8.78906-6.39648 25.9766-5.66406 33.6914 1.95312l12.3047 12.207c1.02539 1.02539 1.2207 1.80664 0.927734 3.32031l-1.46484 6.64062 6.73828 6.68945 4.39453-0.244141c1.12305-0.0488281 1.51367 0.0488281 2.34375 0.878906l2.53906 2.49023-10.8398 10.8398-2.49023-2.49023c-0.830078-0.878906-0.976562-1.2207-0.927734-2.39258l0.292969-4.3457-6.68945-6.73828-6.83594 1.17188c-1.41602 0.292969-2.05078 0.195312-3.17383-0.878906l-8.93555-8.88672c-1.07422-1.02539-1.17188-1.70898-0.488281-3.36914l4.58984-11.4746c-6.10352-6.34766-17.041-7.51953-25.5859-4.58984-0.683594 0.244141-0.927734-0.390625-0.390625-0.78125Z"/>
  </g>
  <text style="stroke:none;fill:black;font-family:sans-serif;font-size:13;font-weight:bold;" transform="matrix(1 0 0 1 1289 1953)">Exporting</text>
  <text style="stroke:none;fill:black;font-family:sans-serif;font-size:13;" transform="matrix(1 0 0 1 1289 1971)">Symbols should be outlined when exporting to ensure the</text>
  <text style="stroke:none;fill:black;font-family:sans-serif;font-size:13;" transform="matrix(1 0 0 1 1289 1989)">design is preserved when submitting to Xcode.</text>
  <text id="template-version" style="stroke:none;fill:black;font-family:sans-serif;font-size:13;text-anchor:end;" transform="matrix(1 0 0 1 3036 1933)">Template v.7.0</text>
  <text style="stroke:none;fill:black;font-family:sans-serif;font-size:13;text-anchor:end;" transform="matrix(1 0 0 1 3036 1951)">Requires Xcode 26 or greater</text>
  <text id="descriptive-name" style="stroke:none;fill:black;font-family:sans-serif;font-size:13;text-anchor:end;" transform="matrix(1 0 0 1 3036 1969)">Generated from cocoa.powder</text>
  <text style="stroke:none;fill:black;font-family:sans-serif;font-size:13;text-anchor:end;" transform="matrix(1 0 0 1 3036 1987)">Typeset at 100.0 points</text>
  <text style="stroke:none;fill:black;font-family:sans-serif;font-size:13;" transform="matrix(1 0 0 1 263 726)">Small</text>
  <text style="stroke:none;fill:black;font-family:sans-serif;font-size:13;" transform="matrix(1 0 0 1 263 1156)">Medium</text>
  <text style="stroke:none;fill:black;font-family:sans-serif;font-size:13;" transform="matrix(1 0 0 1 263 1586)">Large</text>
 </g>
 <g id="Guides">
  <g id="H-reference" style="fill:#27AAE1;stroke:none;" transform="matrix(1 0 0 1 339 696)">
   <path d="M0.993654 0L3.63775 0L29.3281-67.1323L30.0303-67.1323L30.0303-70.459L28.1226-70.459ZM11.6885-24.4799L46.9815-24.4799L46.2315-26.7285L12.4385-26.7285ZM55.1196 0L57.7637 0L30.6382-70.459L29.4326-70.459L29.4326-67.1323Z"/>
  </g>
  <line id="Baseline-S" style="fill:none;stroke:#27AAE1;opacity:1;stroke-width:0.5;" x1="263" x2="3036" y1="696" y2="696"/>
  <line id="Capline-S" style="fill:none;stroke:#27AAE1;opacity:1;stroke-width:0.5;" x1="263" x2="3036" y1="625.541" y2="625.541"/>
  <g id="H-reference" style="fill:#27AAE1;stroke:none;" transform="matrix(1 0 0 1 339 1126)">
   <path d="M0.993654 0L3.63775 0L29.3281-67.1323L30.0303-67.1323L30.0303-70.459L28.1226-70.459ZM11.6885-24.4799L46.9815-24.4799L46.2315-26.7285L12.4385-26.7285ZM55.1196 0L57.7637 0L30.6382-70.459L29.4326-70.459L29.4326-67.1323Z"/>
  </g>
  <line id="Baseline-M" style="fill:none;stroke:#27AAE1;opacity:1;stroke-width:0.5;" x1="263" x2="3036" y1="1126" y2="1126"/>
  <line id="Capline-M" style="fill:none;stroke:#27AAE1;opacity:1;stroke-width:0.5;" x1="263" x2="3036" y1="1055.54" y2="1055.54"/>
  <g id="H-reference" style="fill:#27AAE1;stroke:none;" transform="matrix(1 0 0 1 339 1556)">
   <path d="M0.993654 0L3.63775 0L29.3281-67.1323L30.0303-67.1323L30.0303-70.459L28.1226-70.459ZM11.6885-24.4799L46.9815-24.4799L46.2315-26.7285L12.4385-26.7285ZM55.1196 0L57.7637 0L30.6382-70.459L29.4326-70.459L29.4326-67.1323Z"/>
  </g>
  <line id="Baseline-L" style="fill:none;stroke:#27AAE1;opacity:1;stroke-width:0.5;" x1="263" x2="3036" y1="1556" y2="1556"/>
  <line id="Capline-L" style="fill:none;stroke:#27AAE1;opacity:1;stroke-width:0.5;" x1="263" x2="3036" y1="1485.54" y2="1485.54"/>
  <line id="right-margin-Black-S" style="fill:none;stroke:#00AEEF;stroke-width:0.5;opacity:1.0;" x1="2979.1" x2="2979.1" y1="600.785" y2="720.121"/>
  <line id="left-margin-Black-S" style="fill:none;stroke:#00AEEF;stroke-width:0.5;opacity:1.0;" x1="2887.7" x2="2887.7" y1="600.785" y2="720.121"/>
  <line id="right-margin-Regular-S" style="fill:none;stroke:#00AEEF;stroke-width:0.5;opacity:1.0;" x1="1492.13" x2="1492.13" y1="600.785" y2="720.121"/>
  <line id="left-margin-Regular-S" style="fill:none;stroke:#00AEEF;stroke-width:0.5;opacity:1.0;" x1="1407.56" x2="1407.56" y1="600.785" y2="720.121"/>
  <line id="right-margin-Ultralight-S" style="fill:none;stroke:#00AEEF;stroke-width:0.5;opacity:1.0;" x1="600.134" x2="600.134" y1="600.785" y2="720.121"/>
  <line id="left-margin-Ultralight-S" style="fill:none;stroke:#00AEEF;stroke-width:0.5;opacity:1.0;" x1="519.288" x2="519.288" y1="600.785" y2="720.121"/>
 </g>
 <g id="Symbols">
  <g id="Black-S" transform="matrix(1 0 0 1 2887.7 696)">
   <path class="monochrome-0 multicolor-0:tintColor hierarchical-0:primary SFSymbolsPreviewWireframe" d="M16.9043 1.66663C16.9043 6.26904 20.6338 10 25.2341 10L65.2178 10C69.8181 10 73.5476 6.26904 73.5476 1.66663L73.5476-71.6666C73.5476-76.269 69.8181-80 65.2178-80L25.2341-80C20.6338-80 16.9043-76.269 16.9043-71.6666L16.9043 1.66663ZM65.3567-3.98023C65.3567-1.67895 63.9639-0.442871 61.6636-0.442871L28.6309-0.442871C26.3308-0.442871 25.0955-1.67895 25.0955-3.98023L25.0955-53.4091L65.3567-53.4091L65.3567-3.98023ZM65.3567-65.6818L25.0955-65.6818L25.0955-66.0198C25.0955-68.321 26.3308-69.3998 28.6309-69.3998L61.6636-69.3998C63.9639-69.3998 65.3567-68.321 65.3567-66.0198L65.3567-65.6818ZM53.7617-47.0682C53.7617-47.0682 51.7539-50.3616 48.7512-48.6943C48.5283-48.5706 48.2712-48.4316 47.9846-48.2766C44.0493-46.149 34.5308-41.0028 31.1421-30.7533C27.8726-20.8636 29.5615-14.5337 30.699-10.2714C30.8262-9.79443 30.9465-9.34338 31.0522-8.91626C31.3259-7.81043 31.3589-6.90271 31.3867-6.13281C31.4419-4.6134 31.4775-3.63086 33.3059-2.72192C35.072-1.84399 36.1748-2.54797 37.47-3.37488C38.0916-3.77161 38.7576-4.19665 39.5623-4.48877C42.0437-5.3894 53.2129-9.92835 57.3379-17.8802C61.4629-25.8323 62.3359-30.0818 61.0505-42.9572C60.748-45.986 56.4551-45.7141 56.4551-45.7141C56.4551-45.7141 56.3904-46.4541 57.7126-47.9102C59.2751-49.6309 58.9529-50.0745 58.0505-50.7175C57.1428-51.3641 56.3232-50.502 55.5327-49.5336C54.6047-48.3966 53.7617-47.0682 53.7617-47.0682ZM43.4658-28.7252C48.2158-37.6398 54.2751-44.4285 54.2751-44.4285C54.2751-44.4285 52.3352-34.9119 48.0764-26.4114C43.8787-18.0326 36.054-8.18774 36.054-8.18774C36.054-8.18774 39.3777-21.0533 43.4658-28.7252ZM58.7686-39.6387C58.7686-39.6387 60.2083-29.7708 55.7795-21.3112C51.5039-13.1439 43.7734-9.81433 43.7734-9.81433C43.7734-9.81433 49.3477-14.3777 53.7341-22.5699C57.9526-30.4486 58.7686-39.6387 58.7686-39.6387ZM47.7502-45.1783C47.7502-45.1783 41.5188-40.5944 37.2131-31.3811C33.4565-23.3428 32.5105-15.4772 32.5105-15.4772C32.5105-15.4772 31.1506-24.4274 34.6956-32.0105C38.4727-40.0898 47.7502-45.1783 47.7502-45.1783Z"/>
  </g>
  <g id="Regular-S" transform="matrix(1 0 0 1 1407.56 696)">
   <path class="monochrome-0 multicolor-0:tintColor hierarchical-0:primary SFSymbolsPreviewWireframe" d="M15.6293-0.384644C15.6293 3.96033 19.1515 7.48254 23.4965 7.48254L61.2587 7.48254C65.6035 7.48254 69.1257 3.96033 69.1257-0.384644L69.1257-69.6154C69.1257-73.9603 65.6035-77.4825 61.2587-77.4825L23.4965-77.4825C19.1515-77.4825 15.6293-73.9603 15.6293-69.6154L15.6293-0.384644ZM63.6188-2.74475C63.6188-0.572266 61.8577 1.18884 59.6852 1.18884L25.0698 1.18884C22.8973 1.18884 21.1362-0.572266 21.1362-2.74475L21.1362-55.6119L63.6188-55.6119L63.6188-2.74475ZM63.6188-63.479L21.1362-63.479L21.1362-67.2552C21.1362-69.4277 22.8973-71.1888 25.0698-71.1888L59.6852-71.1888C61.8577-71.1888 63.6188-69.4277 63.6188-67.2552L63.6188-63.479ZM50.9017-47.0682C50.9017-47.0682 48.8938-50.3616 45.8911-48.6943C45.6682-48.5706 45.4113-48.4316 45.1245-48.2766C41.1893-46.149 31.6705-41.0028 28.282-30.7533C25.0123-20.8636 26.7014-14.5337 27.8387-10.2714C27.9661-9.79443 28.0864-9.34338 28.1921-8.91626C28.4658-7.81043 28.4987-6.90271 28.5266-6.13281C28.5817-4.6134 28.6173-3.63086 30.4458-2.72192C32.2119-1.84399 33.3147-2.54797 34.6099-3.37488C35.2314-3.77161 35.8973-4.19665 36.702-4.48877C39.1837-5.3894 50.3528-9.92835 54.4778-17.8802C58.6028-25.8323 59.476-30.0818 58.1903-42.9572C57.8879-45.986 53.595-45.7141 53.595-45.7141C53.595-45.7141 53.5304-46.4541 54.8525-47.9102C56.4149-49.6309 56.0928-50.0745 55.1904-50.7175C54.2828-51.3641 53.4631-50.5021 52.6727-49.5336C51.7448-48.3966 50.9017-47.0682 50.9017-47.0682ZM40.6056-28.7252C45.3557-37.6398 51.4149-44.4285 51.4149-44.4285C51.4149-44.4285 49.4751-34.9119 45.2163-26.4114C41.0184-18.0326 33.1938-8.18774 33.1938-8.18774C33.1938-8.18774 36.5177-21.0533 40.6056-28.7252ZM55.9084-39.6387C55.9084-39.6387 57.3481-29.7708 52.9194-21.3112C48.6438-13.1439 40.9133-9.81433 40.9133-9.81433C40.9133-9.81433 46.4877-14.3777 50.874-22.5699C55.0925-30.4486 55.9084-39.6387 55.9084-39.6387ZM44.8903-45.1783C44.8903-45.1783 38.6586-40.5944 34.353-31.3811C30.5966-23.3428 29.6504-15.4772 29.6504-15.4772C29.6504-15.4772 28.2904-24.4274 31.8356-32.0105C35.6127-40.0898 44.8903-45.1783 44.8903-45.1783Z"/>
  </g>
  <g id="Ultralight-S" transform="matrix(1 0 0 1 519.288 696)">
   <path class="monochrome-0 multicolor-0:tintColor hierarchical-0:primary SFSymbolsPreviewWireframe" d="M15.0027-0.384644C15.0027 3.96033 17.4235 6.3811 21.7684 6.3811L59.5307 6.3811C63.8755 6.3811 66.2964 3.96033 66.2964-0.384644L66.2964-69.6154C66.2964-73.9603 63.8755-76.3811 59.5307-76.3811L21.7684-76.3811C17.4235-76.3811 15.0027-73.9603 15.0027-69.6154L15.0027-0.384644ZM62.9922-0.699341C62.9922 1.47315 61.3884 2.44751 59.216 2.44751L22.0831 2.44751C19.9106 2.44751 18.3069 1.47315 18.3069-0.699341L18.3069-57.3427L62.9922-57.3427L62.9922-0.699341ZM62.9922-61.7483L18.3069-61.7483L18.3069-69.458C18.3069-71.6305 19.9106-72.7622 22.0831-72.7622L59.216-72.7622C61.3884-72.7622 62.9922-71.6305 62.9922-69.458L62.9922-61.7483ZM49.1737-47.0682C49.1737-47.0682 47.1658-50.3616 44.1631-48.6943C43.9403-48.5706 43.6832-48.4316 43.3966-48.2766C39.4614-46.149 29.9426-41.0028 26.554-30.7533C23.2844-20.8636 24.9735-14.5337 26.1108-10.2714C26.2381-9.79443 26.3585-9.34338 26.4642-8.91626C26.7378-7.81043 26.7707-6.90271 26.7986-6.13281C26.8538-4.6134 26.8893-3.63086 28.7178-2.72192C30.4839-1.84399 31.5867-2.54797 32.882-3.37488C33.5035-3.77161 34.1694-4.19665 34.9741-4.48877C37.4557-5.3894 48.6249-9.92835 52.7498-17.8802C56.8748-25.8323 57.748-30.0818 56.4623-42.9572C56.1599-45.986 51.8671-45.7141 51.8671-45.7141C51.8671-45.7141 51.8024-46.4541 53.1246-47.9102C54.687-49.6309 54.3648-50.0745 53.4624-50.7175C52.5549-51.3641 51.7352-50.5021 50.9447-49.5336C50.0168-48.3966 49.1737-47.0682 49.1737-47.0682ZM38.8776-28.7252C43.6277-37.6398 49.687-44.4285 49.687-44.4285C49.687-44.4285 47.7471-34.9119 43.4883-26.4114C39.2905-18.0326 31.4659-8.18774 31.4659-8.18774C31.4659-8.18774 34.7897-21.0533 38.8776-28.7252ZM54.1804-39.6387C54.1804-39.6387 55.6202-29.7708 51.1915-21.3112C46.9158-13.1439 39.1854-9.81433 39.1854-9.81433C39.1854-9.81433 44.7596-14.3777 49.1461-22.5699C53.3646-30.4486 54.1804-39.6387 54.1804-39.6387ZM43.1623-45.1783C43.1623-45.1783 36.9307-40.5944 32.6251-31.3811C28.8686-23.3428 27.9224-15.4772 27.9224-15.4772C27.9224-15.4772 26.5625-24.4274 30.1076-32.0105C33.8847-40.0898 43.1623-45.1783 43.1623-45.1783Z"/>
  </g>
 </g>
</svg>
